
<svg xmlns="http://www.w3.org/2000/svg" width="24" height="24" viewBox="0 0 24 24" fill="none" stroke="currentColor" stroke-width="2" stroke-linecap="round" stroke-linejoin="round"><path d="M12 8c2.648 0 5.028 0.826 6.675 2.14a2.5 2.5 0 0 1 2.326 4.36c0 3.59-4.03 6.5-9 6.5-4.875 0-8.845-2.8-9-6.294l-1-0.206a2.5 2.5 0 0 1 2.326-4.36c1.646-1.313 4.026-2.14 6.674-2.14z"></path><path d="M12 8l1-6l5 2"></path><circle cx="19" cy="4" r="1"></circle><circle cx="9" cy="13" r=".5"></circle><circle cx="15" cy="13" r=".5"></circle><path d="M10 17c.667.333 1.333.5 2 .5s1.333-.167 2-.5"></path></svg>
