
<svg xmlns="http://www.w3.org/2000/svg" width="24" height="24" viewBox="0 0 24 24" fill="none" stroke="currentColor" stroke-width="2" stroke-linecap="round" stroke-linejoin="round"><path d="M12 2c-1.8 0-3.3 1.3-3.3 3 0 0.8 0 1.7-0.3 2.4-0.2 0.4-0.5 0.7-0.9 0.9-0.3 0.1-0.5 0.2-0.7 0.2-0.3 0-0.5 0-0.7-0.1L6 8.3C5.8 8.1 5.5 8 5.3 8 4.9 8 4.6 8.3 4.6 8.7c0 0.2 0.1 0.4 0.3 0.6l0 0c0.2 0.2 0.6 0.5 1.1 0.7 0.4 0.2 0.7 0.5 0.9 0.8 0.3 0.4 0.1 0.7-0.1 1.1-0.5 0.9-1.2 1.7-2.1 2.4-0.4 0.3-0.8 0.5-1.2 0.7s-0.8 0.3-1.3 0.3c-0.4 0-0.8 0.3-0.8 0.7s0.3 0.7 0.7 0.7c0.8 0 1.6-0.3 2.3-0.5 0.7-0.3 1.5-0.5 2.3-0.5 0.9 0 1.7 0.3 2.5 0.9 0.8 0.6 1.6 0.9 2.5 0.9s1.7-0.3 2.5-0.9c0.8-0.6 1.6-0.9 2.5-0.9 0.8 0 1.6 0.2 2.3 0.5 0.7 0.3 1.5 0.5 2.3 0.5 0.4 0 0.7-0.3 0.7-0.7s-0.3-0.7-0.8-0.7c-0.5 0-0.9-0.1-1.3-0.3s-0.8-0.4-1.2-0.7c-0.9-0.7-1.6-1.5-2.1-2.4-0.2-0.4-0.4-0.7-0.1-1.1 0.2-0.3 0.5-0.6 0.9-0.8 0.5-0.2 0.9-0.5 1.1-0.7l0 0c0.2-0.2 0.3-0.4 0.3-0.6 0-0.4-0.3-0.7-0.7-0.7-0.2 0-0.5 0.1-0.7 0.3L17 8.4c-0.2 0.1-0.4 0.1-0.7 0.1-0.2 0-0.4-0.1-0.7-0.2-0.4-0.2-0.7-0.5-0.9-0.9-0.3-0.7-0.3-1.6-0.3-2.4 0-1.7-1.5-3-3.3-3z"></path></svg>
